<svg width="4647" height="720" viewBox="0 0 4647 720" fill="none" xmlns="http://www.w3.org/2000/svg">
<path d="M314.286 30L611 512.714M314.286 30L22 512.714M314.286 30V701.062M611 512.714L314.286 701.062M611 512.714H22M22 512.714L314.286 701.062" stroke="url(#paint0_linear_2907_2)" stroke-width="31"/>
<path d="M1146.86 224.264V572.198H1090.8L926.855 335.202H923.967V572.198H860.938V224.264H917.341L1081.12 461.43H1084.17V224.264H1146.86Z" fill="white"/>
<path d="M2974.41 319.912C2972.82 305.075 2966.14 293.523 2954.36 285.255C2942.7 276.987 2927.52 272.853 2908.83 272.853C2895.69 272.853 2884.42 274.835 2875.02 278.799C2865.62 282.763 2858.43 288.143 2853.45 294.938C2848.46 301.734 2845.91 309.492 2845.8 318.213C2845.8 325.462 2847.44 331.748 2850.73 337.071C2854.13 342.394 2858.71 346.925 2864.49 350.662C2870.27 354.286 2876.66 357.344 2883.69 359.836C2890.71 362.328 2897.79 364.423 2904.92 366.122L2937.54 374.277C2943.24 375.604 2948.85 377.134 2954.36 378.867C2961.55 381.126 2968.57 383.73 2975.43 386.679C2987.66 391.889 2998.59 398.458 3008.22 406.386C3017.96 414.314 3025.66 423.885 3031.32 435.097C3036.98 446.31 3039.82 459.448 3039.82 474.512C3039.82 494.898 3034.61 512.85 3024.19 528.367C3013.77 543.77 2998.7 555.832 2978.99 564.553C2959.4 573.161 2935.67 577.465 2907.81 577.465C2880.74 577.465 2857.24 573.274 2837.31 564.893C2817.49 556.512 2801.97 544.28 2790.76 528.197C2779.66 512.114 2773.65 492.52 2772.75 469.415H2834.76C2835.66 481.534 2839.4 491.614 2845.97 499.655C2852.54 507.697 2861.09 513.7 2871.62 517.664C2882.27 521.628 2894.16 523.61 2907.3 523.61C2921.01 523.61 2933.01 521.571 2943.32 517.494C2953.74 513.303 2961.89 507.527 2967.78 500.165C2973.67 492.69 2976.67 483.969 2976.79 474.002C2976.67 464.941 2974.01 457.466 2968.8 451.577C2963.59 445.574 2956.29 440.59 2946.89 436.626C2937.6 432.549 2926.73 428.925 2914.27 425.753L2894.47 420.657L2874.68 415.56C2846.03 408.198 2823.38 397.042 2806.73 382.092C2790.19 367.028 2781.92 347.038 2781.92 322.121C2781.92 301.621 2787.47 283.669 2798.57 268.266C2809.78 252.862 2825.02 240.913 2844.27 232.419C2863.53 223.811 2885.33 219.507 2909.68 219.507C2934.37 219.507 2956 223.811 2974.58 232.419C2993.27 240.913 3007.93 252.749 3018.58 267.926C3029.23 282.989 3034.72 300.318 3035.06 319.912H2974.41Z" fill="white"/>
<path d="M4236.77 414.541L4247.65 434.452L4322.91 572.198H4252.57L4184.2 444.781L4167.97 414.541H4236.77Z" fill="white"/>
<path fill-rule="evenodd" clip-rule="evenodd" d="M1788.49 224.264H1725.46V479.11H1788.49V224.264ZM1647.31 577.465V521.231C1631.35 521.231 1617.53 518.06 1605.86 511.718C1594.2 505.262 1585.14 496.371 1578.68 485.045C1572.34 473.719 1569.17 460.807 1569.17 446.31V224.264H1506.14V451.577C1506.14 476.494 1511.97 498.41 1523.64 517.324C1535.3 536.238 1551.72 551.019 1572.9 561.665C1594.08 572.198 1618.89 577.465 1647.31 577.465Z" fill="white"/>
<path fill-rule="evenodd" clip-rule="evenodd" d="M1857 392.455V572.198H1920.03V444.781H1984.17L2052.54 572.198H2122.88L2047.62 434.452C2049.89 433.539 2052.09 432.564 2054.24 431.53C2072.59 422.582 2086.47 409.954 2095.87 393.644C2105.38 377.222 2110.14 357.854 2110.14 335.542C2110.14 313.343 2105.44 293.919 2096.04 277.27C2086.75 260.507 2072.99 247.482 2054.75 238.195C2036.63 228.908 2014.21 224.264 1987.48 224.264H1857V277.27L1920.03 276.93H1977.79C1993.54 276.93 2006.39 279.252 2016.36 283.896C2026.32 288.426 2033.74 295.108 2038.61 303.942C2043.48 312.663 2045.92 323.197 2045.92 335.542C2045.92 347.887 2043.48 358.307 2038.61 366.802C2033.86 375.183 2026.49 381.582 2016.53 385.999C2006.56 390.303 1993.76 392.455 1978.13 392.455H1920.03H1893.7H1857Z" fill="white"/>
<path fill-rule="evenodd" clip-rule="evenodd" d="M2145.56 572.198H2212.83L2241.61 486.404L2258.59 435.777L2305.59 295.618H2308.31L2355.41 435.777L2372.42 486.404L2401.24 572.198H2468.52L2345.86 224.264H2268.05L2145.56 572.198Z" fill="white"/>
<path fill-rule="evenodd" clip-rule="evenodd" d="M2514.35 519.363V572.198H2730.62V519.363H2577.38H2514.35ZM2577.38 486.404V224.264H2514.35V486.404H2577.38Z" fill="white"/>
<path d="M1446.41 224.264H1215.54V277.27H1446.41V224.264Z" fill="white"/>
<path d="M1438.66 362.75H1212.36V414.541H1438.66V362.75Z" fill="white"/>
<path d="M1441.83 511.718H1215.54V572.198H1441.83V511.718Z" fill="white"/>
<path d="M3339.21 510.14V572.198H3096.01V510.14H3339.21Z" fill="white"/>
<path d="M3339.21 374.277V432.566H3096.01V374.277H3339.21Z" fill="white"/>
<path d="M3449.63 572.198H3393.51V347.235L3449.63 440.323V572.198Z" fill="white"/>
<path d="M3096.01 224.264H3432.3L3609.84 486.868V224.264H3672.53V572.198H3595.2L3393.51 285.255H3096.01V224.264Z" fill="white"/>
<path d="M4057.03 572.198H4120.06V444.781V392.455H4057.03V572.198Z" fill="white"/>
<path fill-rule="evenodd" clip-rule="evenodd" d="M4402.03 224.264H4330.85L4457.42 442.403V572.198H4520.28V442.403L4487.3 378.265L4487.15 378.184L4402.03 224.264ZM4502.81 354.993L4533.84 414.541L4646.84 224.264H4575.66L4502.81 354.993Z" fill="white"/>
<path fill-rule="evenodd" clip-rule="evenodd" d="M3725.91 277.1V224.264H4187.5C4214.23 224.264 4236.66 228.908 4254.78 238.195C4273.02 247.482 4286.78 260.507 4296.06 277.27C4305.47 293.919 4310.17 313.343 4310.17 335.542C4310.17 357.854 4305.41 377.222 4295.89 393.644C4286.49 409.954 4272.62 422.582 4254.27 431.53C4252.12 432.564 4249.92 433.539 4247.65 434.452L4236.77 414.541H4167.97L4184.2 444.781H4120.06V392.455H4178.16C4193.79 392.455 4206.59 390.303 4216.56 385.999C4226.52 381.582 4233.88 375.183 4238.64 366.802C4243.51 358.307 4245.95 347.887 4245.95 335.542C4245.95 323.197 4243.51 312.663 4238.64 303.942C4233.77 295.108 4226.35 288.426 4216.39 283.896C4206.42 279.252 4193.56 276.93 4177.82 276.93L3895.97 277.1H3833.45H3725.91ZM3833.45 316.206V572.198H3895.97V316.206H3833.45Z" fill="white"/>
<defs>
<linearGradient id="paint0_linear_2907_2" x1="459.291" y1="17.1803" x2="28.828" y2="708.589" gradientUnits="userSpaceOnUse">
<stop stop-color="#2574EA"/>
<stop offset="1" stop-color="#DB2525"/>
</linearGradient>
</defs>
</svg>
